<?xml version="1.0" encoding="utf-8"?>
<!-- Generator: Adobe Illustrator 21.0.0, SVG Export Plug-In . SVG Version: 6.00 Build 0)  -->
<svg version="1.1" id="Camada_1" xmlns="http://www.w3.org/2000/svg" xmlns:xlink="http://www.w3.org/1999/xlink" x="0px" y="0px"
	 viewBox="0 0 63.4 86.8" style="enable-background:new 0 0 63.4 86.8;" xml:space="preserve">
<style type="text/css">
	.st0{fill:#284E8C;}
</style>
<g>
	<path class="st0" d="M24.7,26.7v-11c0-0.2,0.3-4.4-2.4-10.8c-0.6-1.3-1.9-3.5-3.2-3.3c-0.9,0.2-2.7,1.8-3.7,2.8
		c-4.6,4.6-5,11-5,11.3v11.1c-4.2,1.1-5.5,3.2-5.8,4.9c0,0.1-0.1,0.2-0.1,0.3v45.5c0,3,2.3,6.5,13,6.5c8.3,0,13-2.4,13-6.4l0.1-0.9
		V32.6c0-0.1,0-0.2,0-0.3s0-0.2-0.1-0.3C30.4,30.1,29.1,27.9,24.7,26.7z M16.4,5.5c1.1-1,2.5-2.2,2.8-2.4c0.3,0.1,1.2,1.3,1.7,2.4
		c2.6,6,2.3,10,2.3,10.1v17.6c-1.4,0.7-3.6,1-5.7,1c-1.7,0-4.1-0.2-5.6-1V15.6C11.9,15.7,12.3,9.6,16.4,5.5z M10.4,28.3V31
		c-0.1-0.2-0.4-0.4-0.6-0.4C9.3,30.6,9,31,9,31.4c0,2,1.5,4.4,8.5,4.4c5.5,0,8.6-1.6,8.6-4.4c0-0.4-0.3-0.8-0.8-0.8
		c-0.3,0-0.5,0.2-0.7,0.4v-2.8c2.9,0.8,4.4,2.2,4.4,4.2l0,0c-0.3,2.9-4.5,4.7-11.6,4.7c-4.3,0-11.3-0.6-11.5-4.9
		C6.1,30.1,8.3,29,10.4,28.3z M29,77.5c0,3.2-4.3,5-11.5,5c-4.3,0-11.5-0.7-11.5-5V35.8c1.7,1.7,5.1,2.9,11.5,2.9
		c5.6,0,9.6-1.1,11.6-3v40.9L29,77.5z"/>
	<path class="st0" d="M14.9,15.6c0.4,0.2,0.8,0.3,1.2,0.3c1.1,0,2.3-0.6,3.3-2.1c2.2-3.5,0.9-8.2,0.8-8.3c-0.1-0.4-0.5-0.6-0.9-0.5
		s-0.6,0.5-0.5,0.9c0,0,1.2,4.2-0.6,7.1c-0.8,1.4-1.9,1.6-2.6,1.3c-0.6-0.3-0.8-1-0.4-1.9c0.2-0.4,0-0.8-0.4-1s-0.8,0-1,0.4
		C13,13.6,13.8,15,14.9,15.6z"/>
	<path class="st0" d="M20.3,18.6v8.1c0,0.4,0.3,0.8,0.8,0.8s0.8-0.3,0.8-0.8v-8.1c0-0.4-0.3-0.8-0.8-0.8S20.3,18.2,20.3,18.6z"/>
	<path class="st0" d="M21.1,28.6c-0.4,0-0.8,0.3-0.8,0.8v0.3c0,0.4,0.3,0.8,0.8,0.8s0.8-0.3,0.8-0.8v-0.3
		C21.8,29,21.5,28.6,21.1,28.6z"/>
	<path class="st0" d="M46.7,41.6c-8.3,0-13.1,2.4-13.1,6.5l0,0l0,0v29.4c0,3,2.3,6.5,13,6.5c8.3,0,13-2.4,13-6.4l0.1-0.9V57.3
		c0-0.1,0-0.2,0-0.3v-0.1v-3.2c0-0.1,0-0.2,0-0.3v-0.1v-4.5c0-0.1,0-0.2,0-0.3v-0.1v-0.1C59.7,45.2,57.4,41.6,46.7,41.6z M58,77.5
		c0,3.2-4.3,5-11.5,5c-4.3,0-11.5-0.7-11.5-5v-17c1.7,1.7,5.1,2.9,11.5,2.9c5.6,0,9.6-1.1,11.6-3v16.2L58,77.5z M46.5,59.8
		c5.6,0,9.6-1.1,11.6-3v0.4c-0.2,3-4.5,4.7-11.6,4.7c-4.3,0-11.5-0.7-11.5-5l0,0C36.7,58.5,40.1,59.8,46.5,59.8z M35,53.3V52
		c1.7,1.7,5.1,2.9,11.5,2.9c5.6,0,9.6-1.1,11.6-3v1.7c-0.2,3-4.5,4.7-11.6,4.7C42.2,58.3,35,57.7,35,53.3z M58.2,48.4
		c0,0.1,0,0.2,0,0.2l0,0l0,0c-0.3,2.9-4.5,4.7-11.6,4.7c-4.3,0-11.5-0.7-11.5-5v-0.2l0,0l0,0c0-3.1,4.3-5,11.6-5
		c4.3,0,11.5,0.7,11.5,5v0.1C58.2,48.3,58.2,48.4,58.2,48.4z"/>
	<path class="st0" d="M46.7,44.1c-4.2,0-9.3,0.6-9.3,3.6v0.5c0,2.4,3.1,3.7,9.2,3.7c4.2,0,9.3-0.6,9.3-3.6v-0.5
		C55.9,45.3,52.8,44.1,46.7,44.1z M54.4,48.2c0,1.1-2.4,2.1-7.8,2.1c-4.7,0-7.7-0.8-7.7-2.2v-0.5c0-1.1,2.4-2.1,7.8-2.1
		c4.7,0,7.7,0.8,7.7,2.2V48.2z"/>
</g>
</svg>
