<?xml version="1.0" encoding="utf-8"?>
<!-- Generator: Adobe Illustrator 21.0.0, SVG Export Plug-In . SVG Version: 6.00 Build 0)  -->
<svg version="1.1" id="Camada_1" xmlns="http://www.w3.org/2000/svg" xmlns:xlink="http://www.w3.org/1999/xlink" x="0px" y="0px"
	 viewBox="0 0 100 80.3" style="enable-background:new 0 0 100 80.3;" xml:space="preserve">
<style type="text/css">
	.st0{fill:none;stroke:#284E8C;stroke-miterlimit:10;}
</style>
<path class="st0" d="M95,36.1c-0.1-0.5-0.5-0.9-1-1L93.3,35v-8.5l1-0.8c0.4-0.3,0.6-0.9,0.4-1.4s-0.5-0.9-1-1l-5.5-1v-7.1v-0.1
	l1-0.9c0.4-0.3,0.6-0.9,0.4-1.4c-0.1-0.5-0.5-0.9-1-1L43.7,3.9c-0.3-0.1-0.7,0-1,0.2L8,28.3c-0.7,0.4-3.1,2-3,6.6
	c0.1,5,3,7.2,3.1,7.3c0,0,0,0,0.1,0c0,0,0.1,0,0.1,0.1c0,0,0.1,0,0.1,0.1h0.1h0.1c0,0,0,0,0.1,0l2.1,0.4c-0.3,0.9-0.6,2-0.5,3.5
	c0,2.5,0.8,4.3,1.5,5.5l-1.6,1.1c-0.7,0.4-3.1,2-3,6.6c0.1,5,3,7.2,3.1,7.3c0.1,0.1,0.3,0.2,0.5,0.2l47,9.9l0,0l1.7,0.4
	c0.1,0,0.2,0,0.3,0c0.3,0,0.6-0.1,0.9-0.3l30.9-26.4c0.4-0.3,0.5-0.8,0.4-1.3s-0.5-0.9-1-1l-0.6-0.1v-7.1l4.2-3.6
	C94.9,37.2,95.1,36.6,95,36.1z M57.4,41c0.3,0,0.6-0.1,0.9-0.3l27.2-23.3v8.4L57.2,49.9v-9C57.3,41,57.3,41,57.4,41z M10.1,31.1
	l44.5,9.3v9l-44.5-9.3L10.1,31.1z M12.1,64.7v-9L56.6,65v9L12.1,64.7z M15.2,51.5v-7.7l40.4,8.5l0,0l1.7,0.4c0.1,0,0.2,0,0.3,0
	c0.3,0,0.6-0.1,0.9-0.3l0.7-0.6l0.4,0.1v9L15.2,51.5z M87.7,50.4L59.2,74.6v-9c0.1,0,0.2,0,0.2,0c0.3,0,0.6-0.1,0.9-0.3l1.5-1.3
	l0.7,0.1c0.1,0,0.2,0,0.3,0c0.3,0,0.6-0.1,0.9-0.3l24-20.5C87.7,43.3,87.7,50.4,87.7,50.4z M90.7,37.2L62.3,61.4v-9
	c0.1,0,0.2,0,0.2,0c0.3,0,0.6-0.1,0.9-0.3l27.3-23.3V37.2z"/>
</svg>
