<?xml version="1.0" encoding="utf-8"?>
<!-- Generator: Adobe Illustrator 21.0.0, SVG Export Plug-In . SVG Version: 6.00 Build 0)  -->
<svg version="1.1" id="Camada_1" xmlns="http://www.w3.org/2000/svg" xmlns:xlink="http://www.w3.org/1999/xlink" x="0px" y="0px"
	 viewBox="0 0 100 57" style="enable-background:new 0 0 100 57;" xml:space="preserve">
<style type="text/css">
	.st0{fill:#284E8C;}
</style>
<g>
	<path class="st0" d="M89.6,26h-3.4v-3.6c0-2.1-1.7-3.8-3.8-3.8H62.2c-1,0-1.8,0.4-2.5,0.9c-0.7-0.6-1.5-0.9-2.5-0.9H37
		c-2.1,0-3.8,1.7-3.8,3.8V26h-3.3c-2.1,0-3.8,1.7-3.8,3.8v15.8h8.4h0.3v6.3h4.7l2-6.3h36.3l2,6.2h4.8v-6.2h0.2h8.5V29.8
		C93.4,27.7,91.7,26,89.6,26z M62.2,21.2h20.2c0.7,0,1.2,0.5,1.2,1.2v4.4c-0.9,0.7-1.5,1.8-1.5,3v5.9H61v-4v-9.3
		C61,21.7,61.5,21.2,62.2,21.2z M37,21.2h20.2c0.7,0,1.2,0.5,1.2,1.2v9.3v4h-21v-5.9c0-1.2-0.6-2.4-1.6-3.1v-4.3
		C35.8,21.7,36.3,21.2,37,21.2z M28.7,43V29.8c0-0.7,0.5-1.2,1.2-1.2h3.7c0.6,0,1.2,0.5,1.2,1.2V43h-0.3H28.7z M37.7,49.3h-0.3v-3.6
		h1.5L37.7,49.3z M37.4,43v-4.7h44.7V43H77H37.4z M82.1,49.2h-0.4l-1.2-3.6h1.6V49.2z M90.8,43h-5.9h-0.2V29.8
		c0-0.7,0.5-1.2,1.2-1.2h3.7c0.7,0,1.2,0.5,1.2,1.2L90.8,43z"/>
	<path class="st0" d="M19.8,18.6h10.6l-4.7-14H11.3l-4.5,14h10.5v30.7h-4.9v2.6h12.4v-2.6h-4.9V18.6H19.8z M13.1,7.2h10.8l2.9,8.8
		H10.3L13.1,7.2z"/>
</g>
</svg>
