<?xml version="1.0" encoding="utf-8"?>
<!-- Generator: Adobe Illustrator 21.0.0, SVG Export Plug-In . SVG Version: 6.00 Build 0)  -->
<svg version="1.1" id="Camada_1" xmlns="http://www.w3.org/2000/svg" xmlns:xlink="http://www.w3.org/1999/xlink" x="0px" y="0px"
	 viewBox="0 0 136 91" style="enable-background:new 0 0 136 91;" xml:space="preserve">
<style type="text/css">
	.st0{fill:#284E8C;}
	.st1{fill:#FFFFFF;}
	.st2{fill:none;stroke:#284E8C;stroke-width:2;stroke-miterlimit:10;}
</style>
<path class="st0" d="M100,65.3v-46c0-1.1-0.9-2-2-2H12c-1.1,0-2,0.9-2,2v46c0,1.1,0.9,2,2,2h39c1.1,0,2,0.9,2,2v3c0,1.1-0.9,2-2,2
	h-9c-1.1,0-2,0.9-2,2l0,0c0,1.1,0.9,2,2,2h25.9c1.1,0,2-0.9,2-2l0,0c0-1.1-0.9-2-2-2H59c-1.1,0-2-0.9-2-2v-3c0-1.1,0.9-2,2-2h39
	C99.1,67.3,100,66.4,100,65.3z M13,62.3v-40c0-1.1,0.9-2,2-2h80c1.1,0,2,0.9,2,2v40c0,1.1-0.9,2-2,2H15C13.9,64.3,13,63.4,13,62.3z"
	/>
<path class="st1" d="M118.7,79.5H81.8c-2.2,0-4-1.8-4-4V32.1c0-2.2,1.8-4,4-4h36.9c2.2,0,4,1.8,4,4v43.4
	C122.7,77.7,120.9,79.5,118.7,79.5z"/>
<g>
	<path class="st2" d="M100.3,45.7c-6.8,0-12.4,5.5-12.4,12.4c0,6.8,5.5,12.4,12.4,12.4c6.8,0,12.4-5.5,12.4-12.4
		C112.6,51.2,107.1,45.7,100.3,45.7z M100.3,69c-6,0-10.9-4.9-10.9-10.9s4.9-10.9,10.9-10.9s10.9,4.9,10.9,10.9
		C111.2,64.1,106.3,69,100.3,69z"/>
	<path class="st2" d="M77.8,40.1v35.4l0,0h44.9l0,0V40.1H77.8z M100.3,71.9c-6.5,0-12-4.5-13.4-10.6v0.1c0,0.8-0.6,1.4-1.4,1.4
		S84,62.1,84,61.3V55c0-0.8,0.6-1.4,1.4-1.4s1.4,0.6,1.4,1.4c1.4-6.1,6.9-10.6,13.4-10.6c7.6,0,13.8,6.2,13.8,13.8
		C114.1,65.7,107.9,71.9,100.3,71.9z"/>
	<path class="st2" d="M81.8,79.5h36.9c1.7,0,3.2-1.1,3.7-2.6H78.1C78.7,78.5,80.1,79.5,81.8,79.5z"/>
	<path class="st2" d="M118.7,28.1H81.8c-2.2,0-4,1.8-4,4v5.2h44.9v-5.2C122.8,29.9,121,28.1,118.7,28.1z M86.1,34.1h-4.4
		c-0.8,0-1.4-0.6-1.4-1.4c0-0.8,0.6-1.4,1.4-1.4h4.4c0.8,0,1.4,0.6,1.4,1.4C87.5,33.5,86.9,34.1,86.1,34.1z M108.3,34.2
		c-0.9,0-1.7-0.8-1.7-1.7c0-0.9,0.8-1.7,1.7-1.7c0.9,0,1.7,0.7,1.7,1.7C109.9,33.5,109.2,34.2,108.3,34.2z M113.4,34.2
		c-0.9,0-1.7-0.8-1.7-1.7c0-0.9,0.7-1.7,1.7-1.7c0.9,0,1.7,0.7,1.7,1.7S114.4,34.2,113.4,34.2z M118.6,34.2c-0.9,0-1.7-0.8-1.7-1.7
		c0-0.9,0.7-1.7,1.7-1.7c0.9,0,1.7,0.7,1.7,1.7C120.3,33.5,119.6,34.2,118.6,34.2z"/>
</g>
</svg>
