<?xml version="1.0" encoding="utf-8"?>
<!-- Generator: Adobe Illustrator 21.0.0, SVG Export Plug-In . SVG Version: 6.00 Build 0)  -->
<svg version="1.1" id="Camada_1" xmlns="http://www.w3.org/2000/svg" xmlns:xlink="http://www.w3.org/1999/xlink" x="0px" y="0px"
	 viewBox="0 0 269 245" style="enable-background:new 0 0 269 245;" xml:space="preserve">
<style type="text/css">
	.st0{fill:#284E8C;}
	.st1{fill:#FFFFFF;}
</style>
<g>
	<g>
		<path class="st0" d="M116.5,226.4C58.3,226.4,11,179.1,11,120.9C11,62.8,58.3,15.4,116.5,15.4S222,62.7,222,120.9
			S174.7,226.4,116.5,226.4z M116.5,19.8c-55.7,0-101.1,45.4-101.1,101.1S60.8,222,116.5,222s101.1-45.4,101.1-101.1
			S172.2,19.8,116.5,19.8z"/>
	</g>
	<g>
		<path class="st0" d="M116.5,196.8c-41.8,0-75.8-34-75.8-75.8s34-75.8,75.8-75.8s75.8,34,75.8,75.8S158.3,196.8,116.5,196.8z
			 M116.5,47.3c-40.6,0-73.6,33-73.6,73.6s33,73.6,73.6,73.6s73.6-33,73.6-73.6S157.1,47.3,116.5,47.3z"/>
	</g>
</g>
<polygon class="st1" points="163,113.8 156.3,115 156.3,119 161,122.5 168.8,178.8 175,227.8 237.5,227.8 239.5,222.8 251.8,122.5 
	256.3,119.5 257.8,116 254.8,113.8 "/>
<path class="st0" d="M258.1,113.7c-1.4-1.5-3.4-1.7-4.5-1.7H160c-0.8,0-2.9,0.2-4.2,1.7c-0.7,0.8-1.4,2.2-1.1,4.4
	c0.5,3.6,2.9,5.2,5.2,5.7L173,228.7c0.2,0.1,0.4,0.5,0.6,0.6H240c0.3-0.2,0.5-0.5,0.8-0.7l8.1-64.5l5-40.4c2.3-0.5,4.7-2.1,5.2-5.7
	C259.5,115.9,258.8,114.5,258.1,113.7z M247.3,148.3l-1.7,13.9l-7.9,63.6h-61.3l-12.7-101.6h86.6L247.3,148.3z M255.6,117.7
	c-0.3,2.2-1.8,2.7-3.1,2.7l0,0l-1.7,0.3h-88.7l-0.8-0.2c-1.2,0-2.7-0.5-3-2.7c-0.1-0.5-0.1-1.2,0.2-1.6s1-0.4,1.7-0.5h46.7h47
	c0.5,0,1.2,0.1,1.5,0.5C255.7,116.5,255.7,117.1,255.6,117.7z"/>
</svg>
