<?xml version="1.0" encoding="utf-8"?>
<!-- Generator: Adobe Illustrator 21.0.0, SVG Export Plug-In . SVG Version: 6.00 Build 0)  -->
<svg version="1.1" id="Camada_1" xmlns="http://www.w3.org/2000/svg" xmlns:xlink="http://www.w3.org/1999/xlink" x="0px" y="0px"
	 viewBox="0 0 49.3 48.2" style="enable-background:new 0 0 49.3 48.2;" xml:space="preserve">
<style type="text/css">
	.st0{fill:#284E8C;}
</style>
<path class="st0" d="M47.2,12.3c0.3-0.3,0.3-0.7,0.1-1c-0.6-0.8-2.4-2.9-5.5-6.2c-3.1-3.4-7.3-3.3-10-3.2h-0.4
	c-0.4,0-0.6,0.3-0.7,0.6c-0.4,2.5-3,4.4-6,4.4c-3.1,0-5.6-1.9-6-4.4c-0.1-0.3-0.3-0.6-0.7-0.6h-0.4c-2.8-0.1-6.9-0.1-10,3.2
	c-3.2,3.4-5,5.4-5.6,6.2c-0.2,0.3-0.2,0.7,0.1,1l9.7,8.6c0.1,3.1-0.1,5.3-0.3,8.1c-0.3,3.6-0.7,8.1-0.7,16.3c0,0.4,0.3,0.7,0.7,0.7
	h26.4c0.4,0,0.7-0.3,0.7-0.7c0-8.2-0.4-12.7-0.7-16.3c-0.2-2.8-0.4-5.1-0.3-8.1L47.2,12.3z M12.2,44.6c0-7.7,0.4-12,0.7-15.5
	c0.5-5.4,0.7-8.7-0.7-19.4c-0.1-0.4-0.4-0.7-0.8-0.6c-0.4,0.1-0.7,0.4-0.6,0.8c0.5,3.8,0.8,6.6,0.9,9l-8.1-7.2c0.8-1,2.5-2.9,5-5.6
	c2.6-2.8,6.1-2.8,8.8-2.8c0.8,2.9,3.8,5,7.3,5s6.6-2.1,7.3-5c2.6-0.1,6.2-0.1,8.8,2.8c2.5,2.7,4.2,4.6,5,5.6l-8.1,7.2
	c0.1-2.3,0.4-5.2,0.9-9c0.1-0.4-0.2-0.8-0.6-0.8c-0.4,0-0.8,0.2-0.8,0.6c-1.4,10.7-1.1,14-0.7,19.4c0.3,3.5,0.6,7.8,0.7,15.5H12.2z"
	/>
</svg>
