<?xml version="1.0" encoding="utf-8"?>
<!-- Generator: Adobe Illustrator 21.0.0, SVG Export Plug-In . SVG Version: 6.00 Build 0)  -->
<svg version="1.1" id="Camada_1" xmlns="http://www.w3.org/2000/svg" xmlns:xlink="http://www.w3.org/1999/xlink" x="0px" y="0px"
	 viewBox="0 0 53.2 61.7" style="enable-background:new 0 0 53.2 61.7;" xml:space="preserve">
<style type="text/css">
	.st0{fill:none;stroke:#284E8C;stroke-miterlimit:10;}
</style>
<path class="st0" d="M27,11.4c0.5-0.9,0.9-1.6,1.2-2.3c1-1.8,2-3.6,3.7-4.9c2.7-2.1,5.6-2.8,8.8-1.4c1.9,0.8,2.9,2.1,3.5,4
	c1.2,3.9-1.5,7.3-4.5,9.2c-0.3,0.2-0.9,0.6-1.2,0.8c0,0.1,0.5-0.1,0.5,0c0.3,0,0.6,0,0.9,0c3.7,0,7.3,0,11,0c0.9,0,0.9,0,0.9,0.9
	c0,3.2,0,6.4,0,9.6c0,0.9,0,1-1,1c-7.2,0-14.3,0-21.5,0c-0.7,0-0.9-0.2-0.9-0.9c0-3.3,0-6.6,0-9.9c0-0.6-0.2-0.8-0.8-0.8
	c-0.5,0-1,0-1.5,0s-0.7,0.2-0.7,0.7c0,3.3,0,6.6,0,9.9c0,0.9-0.1,1-1,1c-7.3,0-14.5,0-21.8,0c-1,0-1,0-1-1c0-3.2,0-6.4,0-9.6
	c0-0.9,0-0.9,0.9-0.9c3.5,0,7,0,10.5,0c0.2,0,0.9,0.1,1.2-0.1c-0.2-0.1-0.8-0.4-1-0.5c-1.6-1.1-3-2.4-3.8-4.3
	c-1.5-3.7,0.8-7.1,2.2-8.2c2.3-1.8,4.8-2.1,7.5-1.1C22.2,3.8,24.4,6,25.7,9C26.4,9.8,26.6,10.5,27,11.4z M24.7,15.9
	c0-0.2-1.9-5-3.2-7c-0.9-1.8-1.9-3-3.6-3.3c-2.3-0.4-2.8,0-4,1c-1,0.9-1.4,2.9-0.9,4.2c0.5,1.4,1.6,2.1,2.7,2.7
	C17.8,14.7,23.9,15.8,24.7,15.9z M29,16.1c0.4,0,5-1.2,6.9-2c1.8-0.7,3.4-1.6,4.3-3.4c0.6-1.2,0.8-2.5,0-3.7c-0.8-1.1-2-1.7-3.2-1.5
	c-1.6,0-3.3,1.3-4.2,2.5C31.7,9.8,29.4,15,29,16.1z"/>
<path class="st0" d="M5.3,30.8h20.6c0,0,0,19.1,0,28.1c0,1,0,1-1,1c-6.3,0-12.5,0-18.8,0c-0.7,0-0.9-0.2-0.9-0.9c0-9,0-18.1,0-27.1
	C5.3,31.5,5.3,30.8,5.3,30.8z"/>
<path class="st0" d="M48.8,30.8c0,0,0,19,0,28.1c0,0.9,0,1-1,1c-6.3,0-12.6,0-18.9,0c-0.6,0-0.7-0.2-0.7-0.7c0-9,0-18,0-27
	c0-0.2,0-1.3,0-1.3h20.6V30.8z"/>
</svg>
