<?xml version="1.0" encoding="utf-8"?>
<!-- Generator: Adobe Illustrator 21.0.0, SVG Export Plug-In . SVG Version: 6.00 Build 0)  -->
<svg version="1.1" id="Camada_1" xmlns="http://www.w3.org/2000/svg" xmlns:xlink="http://www.w3.org/1999/xlink" x="0px" y="0px"
	 viewBox="0 0 34.6 32" style="enable-background:new 0 0 34.6 32;" xml:space="preserve">
<style type="text/css">
	.st0{fill:none;stroke:#284E8C;stroke-miterlimit:10;}
</style>
<path class="st0" d="M30.7,17.4l-6.1,6.1l0,0l-6,6c-0.7,0.7-1.8,0.7-2.5,0l-6-6l0,0L4,17.4C0.5,13.8,0.5,8.1,4,4.6s9.2-3.5,12.7,0
	l0.2,0.2c0.3,0.3,0.7,0.3,0.9,0L18,4.6c3.5-3.5,9.2-3.5,12.7,0S34.2,13.8,30.7,17.4L30.7,17.4z M10.3,6c-2.8,0-5,2.2-5,5
	c0,0.6,0.4,1,1,1s1-0.4,1-1l0,0c0-1.5,1.1-2.8,2.6-3c0.1,0,0.2,0,0.3,0l0,0c0.6,0,1-0.4,1-1C11.3,6.5,10.9,6,10.3,6L10.3,6z"/>
</svg>
