<?xml version="1.0" encoding="utf-8"?>
<!-- Generator: Adobe Illustrator 21.0.0, SVG Export Plug-In . SVG Version: 6.00 Build 0)  -->
<svg version="1.1" id="Layer_1" xmlns="http://www.w3.org/2000/svg" xmlns:xlink="http://www.w3.org/1999/xlink" x="0px" y="0px"
	 viewBox="0 0 45.4 45.4" style="enable-background:new 0 0 45.4 45.4;" xml:space="preserve">
<style type="text/css">
	.st0{fill:none;stroke:#0F4B8B;stroke-miterlimit:10;}
</style>
<g>
	<circle class="st0" cx="27.8" cy="5.6" r="4.4"/>
	<path class="st0" d="M39.5,11.9c-0.3-0.5-0.9-0.6-1.4-0.5l-4.9,2.5c-0.5,0.3-0.6,0.9-0.5,1.4c0.3,0.4,0.5,0.5,0.9,0.5
		c0.1,0,0.3,0,0.5-0.1l4.9-2.5C39.5,13.1,39.8,12.4,39.5,11.9z"/>
	<path class="st0" d="M34.9,16.3l-4.9,2.4l-0.6,0.4l-2.9-5.8l-1.1-2.4c-0.4-0.6-1-1.1-1.8-1.1l0,0H21l0,0c-1.9,0-3.4,1.4-3.7,3.3
		l-1.3,11.1v0.1l-1.1,8.8l-5.3,4.3c-1.1,0.9-1.4,2.4-0.5,3.5c0.5,0.6,1.3,0.9,1.9,0.9c0.5,0,1.1-0.3,1.5-0.5l6.2-4.9
		c0.5-0.4,0.9-1,0.9-1.6l0.9-6.6l4.2,5.8v7.8c0,1.3,0.9,2.4,2.3,2.5c1.5,0.1,2.8-1,2.8-2.5v-8.6l0,0c0-0.1,0-0.3,0-0.3s0-0.1,0-0.3
		c0-0.1,0-0.1,0-0.3c0-0.1,0-0.1-0.1-0.3c0,0,0-0.1-0.1-0.1c0-0.1-0.1-0.3-0.1-0.3l0,0L23.8,24l0.5-4l-1.9-3.9
		c-0.1-0.3,0-0.6,0.3-0.8l0,0c0.3-0.1,0.6,0,0.8,0.3l3.5,6.9c0,0.1,0.1,0.3,0.3,0.4c0.4,0.5,0.9,0.8,1.5,0.8c0.3,0,0.6,0,0.9-0.3
		l7.4-3.7c1-0.5,1.4-1.8,0.9-2.8C37,16.1,35.7,16,34.9,16.3z"/>
</g>
</svg>
