<?xml version="1.0" encoding="utf-8"?>
<!-- Generator: Adobe Illustrator 21.0.0, SVG Export Plug-In . SVG Version: 6.00 Build 0)  -->
<svg version="1.1" id="Layer_1" xmlns="http://www.w3.org/2000/svg" xmlns:xlink="http://www.w3.org/1999/xlink" x="0px" y="0px"
	 viewBox="0 0 45.4 45.4" style="enable-background:new 0 0 45.4 45.4;" xml:space="preserve">
<style type="text/css">
	.st0{fill:none;stroke:#004994;stroke-miterlimit:10;}
</style>
<path class="st0" d="M35.6,20.7l-9.8,20.7c-0.6,1.1-1.7,1.9-3.2,1.9c-1.3,0-2.5-0.8-3-1.9L9.8,20.7c-0.6-1.4-0.9-3.2-0.9-4.7
	C8.9,8.4,15,2.3,22.6,2.3S36.3,8.4,36.3,16C36.3,17.6,36.2,19.3,35.6,20.7z M22.6,9.1c-3.8,0-6.8,3.2-6.8,6.8c0,3.8,3.2,6.8,6.8,6.8
	c3.8,0,6.8-3.2,6.8-6.8C29.5,12.2,26.4,9.1,22.6,9.1z"/>
</svg>
