<?xml version="1.0" encoding="utf-8"?>
<!-- Generator: Adobe Illustrator 21.0.0, SVG Export Plug-In . SVG Version: 6.00 Build 0)  -->
<svg version="1.1" id="Layer_1" xmlns="http://www.w3.org/2000/svg" xmlns:xlink="http://www.w3.org/1999/xlink" x="0px" y="0px"
	 viewBox="0 0 45.4 45.4" style="enable-background:new 0 0 45.4 45.4;" xml:space="preserve">
<style type="text/css">
	.st0{fill:#284E8C;}
</style>
<path class="st0" d="M41.3,38.7c0,0.8-0.3,1.4-0.9,2c-0.6,0.6-1.2,0.9-2,0.9s-1.5-0.3-2-0.9L28.8,33c-2.7,1.9-5.7,2.8-8.9,2.8
	c-2.1,0-4.2-0.4-6.2-1.2c-2-0.9-3.6-2-5-3.3c-1.4-1.4-2.6-3.1-3.3-5c-0.9-2-1.2-4-1.2-6.2c0-2.1,0.4-4.2,1.2-6.2s2-3.6,3.3-5
	c1.4-1.4,3.1-2.6,5-3.3c2-0.9,4-1.2,6.2-1.2S24,4.5,26,5.4s3.6,2,5,3.3c1.4,1.4,2.6,3.1,3.3,5c0.9,2,1.2,4,1.2,6.2
	c0,3.3-1,6.3-2.8,8.9l7.7,7.7C41,37.3,41.3,37.9,41.3,38.7z M26.9,27.2c2-2,2.9-4.4,2.9-7.1s-1-5.1-2.9-7.1S22.5,10,19.8,10
	s-5.1,1-7.1,2.9S9.7,17.3,9.7,20s1,5.1,2.9,7.1s4.4,2.9,7.1,2.9S25,29.1,26.9,27.2z"/>
</svg>
