<?xml version="1.0" encoding="utf-8"?>
<!-- Generator: Adobe Illustrator 21.0.0, SVG Export Plug-In . SVG Version: 6.00 Build 0)  -->
<svg version="1.1" id="Layer_1" xmlns="http://www.w3.org/2000/svg" xmlns:xlink="http://www.w3.org/1999/xlink" x="0px" y="0px"
	 viewBox="0 0 77.3 74.8" style="enable-background:new 0 0 77.3 74.8;" xml:space="preserve">
<style type="text/css">
	.st0{fill:#FFFFFF;}
</style>
<g transform="scale(1 -1)">
	<g transform="translate(0 -75)">
		<g>
			<path marker-end="none" marker-start="none" class="st0" d="M5.4,9.2c6.2,3.5,9.8,7.1,11.8,12.5c-0.5,1-1,2-1.5,3
				c-0.4,0.2-0.9,0.4-1.3,0.6H8.1c-2.6,0-4.7,2.1-4.7,4.7v9.5c0,2.4,1.9,4.4,4.3,4.6c3.1,16.4,15.4,26.7,30,26.7
				c14.7,0,26.9-10.3,30-26.7c2.3-0.2,4.2-2.2,4.2-4.6V30c0-2.6-2.1-4.7-4.7-4.7h-7.1c-0.1,0-0.1,0-0.2,0c-0.3-0.8-0.7-1.6-1.1-2.4
				c2-6.1,5.6-9.9,12.2-13.7C62,5,53.4,4.1,45.4,10.4C43,9.5,40.4,9,37.7,9c-2.4,0-4.8,0.4-7,1.2C22.8,4.2,14.3,5.1,5.4,9.2z
				 M60,37.3c0,1.4-0.1,2.8-0.3,4.2c-4.8,1.3-13.2,4.7-15.7,7.9c-1.3-4-18.6-8.4-28.5-9.4c-0.1-0.9-0.1-1.8-0.1-2.7
				c0-3.2,0.5-6.2,1.4-9.1c4.8-2.3,9.5-3.9,15.1-4.3c1,1,2.8,1.6,4.8,1.6c3.2,0,5.7-1.6,5.7-3.5s-2.6-3.5-5.7-3.5
				c-2.1,0-4,0.7-5,1.8c-4.8,0.4-8.9,1.5-12.8,3.1c4-7.2,10.9-11.9,18.8-11.9C50,11.4,60,23,60,37.3z M25.2,35.5
				c0,1.8,1.4,3.2,3.2,3.2c1.8,0,3.2-1.5,3.2-3.2c0-1.8-1.5-3.2-3.2-3.2C26.7,32.2,25.2,33.7,25.2,35.5z M43.5,35.5
				c0,1.8,1.5,3.2,3.2,3.2c1.8,0,3.2-1.5,3.2-3.2c0-1.8-1.4-3.2-3.2-3.2C44.9,32.2,43.5,33.7,43.5,35.5z M37.7,64.7
				c11.7,0,21.5-7.9,24-20.6h2.2c-3,14.5-13.6,23.4-26.2,23.4s-23.2-8.9-26.2-23.4h2.2C16.2,56.8,26,64.7,37.7,64.7z"/>
		</g>
	</g>
</g>
</svg>
